<svg xmlns="http://www.w3.org/2000/svg" width="232.001" height="89" viewBox="0 0 232.001 89">
  <path id="Subtraction_4" data-name="Subtraction 4" d="M232-3956H44.5a44.214,44.214,0,0,1-17.321-3.5,44.331,44.331,0,0,1-14.145-9.537A44.358,44.358,0,0,1,3.5-3983.179,44.227,44.227,0,0,1,0-4000.5a44.216,44.216,0,0,1,3.5-17.321,44.354,44.354,0,0,1,9.536-14.145,44.35,44.35,0,0,1,14.145-9.537A44.214,44.214,0,0,1,44.5-4045H232v89h0ZM44-4033a33.037,33.037,0,0,0-33,33,33.037,33.037,0,0,0,33,33,33.037,33.037,0,0,0,33-33A33.037,33.037,0,0,0,44-4033Z" transform="translate(0 4045)" fill="#03dac5"/>
</svg>
