<?xml version="1.0" encoding="utf-8"?>
<!-- Generator: Adobe Illustrator 23.0.5, SVG Export Plug-In . SVG Version: 6.00 Build 0)  -->
<svg version="1.1" id="Layer_1" xmlns="http://www.w3.org/2000/svg" xmlns:xlink="http://www.w3.org/1999/xlink" x="0px" y="0px"
	 viewBox="0 0 512 512" style="enable-background:new 0 0 512 512;" xml:space="preserve">
<style type="text/css">
	.st0{fill:#FFFFFF;}
</style>
<g>
	<circle class="st0" cx="256" cy="256" r="256"/>
	<path d="M175.1,208.2l47.1,47l-47.1,47.9c-9.3,9.4-9.3,24.6,0,33.1c9.4,10.2,24.6,10.2,33.1,0l47-46.2l47.9,46.2
		c9.4,10.2,24.6,10.2,33.1,0c10.2-8.5,10.2-23.7,0-33.1L290,255.2l46.2-47c10.2-8.5,10.2-23.7,0-33.1c-8.5-9.3-23.7-9.3-33.1,0
		l-47.9,47.1l-47-47.1c-8.5-9.3-23.7-9.3-33.1,0C165.8,184.5,165.8,199.7,175.1,208.2L175.1,208.2z"/>
</g>
</svg>
